<?xml version="1.0" encoding="UTF-8" standalone="no"?>
<!-- Created with Inkscape (http://www.inkscape.org/) -->

<svg
   xmlns:dc="http://purl.org/dc/elements/1.1/"
   xmlns:cc="http://creativecommons.org/ns#"
   xmlns:rdf="http://www.w3.org/1999/02/22-rdf-syntax-ns#"
   xmlns:svg="http://www.w3.org/2000/svg"
   xmlns="http://www.w3.org/2000/svg"
   xmlns:sodipodi="http://sodipodi.sourceforge.net/DTD/sodipodi-0.dtd"
   xmlns:inkscape="http://www.inkscape.org/namespaces/inkscape"
   width="21"
   height="20"
   id="svg2"
   version="1.1"
   inkscape:version="0.48.4 r9939"
   sodipodi:docname="musicMuteSvg.svg">
  <defs
     id="defs4" />
  <sodipodi:namedview
     id="base"
     pagecolor="#ffffff"
     bordercolor="#666666"
     borderopacity="1.0"
     inkscape:pageopacity="0.0"
     inkscape:pageshadow="2"
     inkscape:zoom="44.8"
     inkscape:cx="10.890096"
     inkscape:cy="9.446187"
     inkscape:document-units="px"
     inkscape:current-layer="layer1"
     showgrid="false"
     inkscape:window-width="1920"
     inkscape:window-height="1018"
     inkscape:window-x="-8"
     inkscape:window-y="-8"
     inkscape:window-maximized="1" />
  <metadata
     id="metadata7">
    <rdf:RDF>
      <cc:Work
         rdf:about="">
        <dc:format>image/svg+xml</dc:format>
        <dc:type
           rdf:resource="http://purl.org/dc/dcmitype/StillImage" />
      </cc:Work>
    </rdf:RDF>
  </metadata>
  <g
     inkscape:label="Layer 1"
     inkscape:groupmode="layer"
     id="layer1"
     transform="translate(0,-1032.3622)">
    <rect
       style="fill:#444444;fill-opacity:1"
       id="rect3753"
       width="3.0357141"
       height="6.6071429"
       x="2.3214288"
       y="1039.3264" />
    <path
       style="fill:none;stroke:#444444;stroke-width:0.5;stroke-linecap:butt;stroke-linejoin:miter;stroke-miterlimit:4;stroke-opacity:1;stroke-dasharray:none"
       d="m 5.1785714,1039.5573 4.6428572,-3.9286"
       id="path3759"
       inkscape:connector-curvature="0" />
    <path
       style="fill:none;stroke:#444444;stroke-width:0.5;stroke-linecap:butt;stroke-linejoin:miter;stroke-miterlimit:4;stroke-opacity:1;stroke-dasharray:none"
       d="m 5.115437,1045.7028 4.642857,3.9286"
       id="path3759-1"
       inkscape:connector-curvature="0" />
    <path
       style="fill:none;stroke:#444444;stroke-width:0.5;stroke-linecap:butt;stroke-linejoin:miter;stroke-miterlimit:4;stroke-opacity:1;stroke-dasharray:none"
       d="m 9.9121219,1035.7578 0.063135,13.8896"
       id="path3779"
       inkscape:connector-curvature="0" />
    <path
       style="fill:#444444;fill-opacity:1;stroke:#444444;stroke-width:0.03156727;stroke-miterlimit:4;stroke-opacity:1;stroke-dasharray:none"
       d="m 7.528242,15.006798 -2.1623578,-1.833393 0,-2.880615 0,-2.8806143 2.1307905,-1.801869 2.1307905,-1.801869 0.031567,6.5086513 c 0.017362,3.579758 0.031567,6.511903 0.031567,6.515877 0,0.004 -0.973061,-0.817802 -2.1623578,-1.826168 z"
       id="path3781"
       inkscape:connector-curvature="0"
       transform="translate(0,1032.3622)" />
    <path
       style="fill:none;stroke:#444444;stroke-width:1px;stroke-linecap:butt;stroke-linejoin:miter;stroke-opacity:1"
       d="M 5.4927045,7.5624968 9.4701801,4.2163664 9.6595837,16.401332 5.555839,12.928932 z"
       id="path3789"
       inkscape:connector-curvature="0"
       transform="translate(0,1032.3622)" />
    <path
       style="fill:none;stroke:#444444;stroke-width:0.34352627;stroke-linecap:butt;stroke-linejoin:round;stroke-miterlimit:4;stroke-opacity:1;stroke-dasharray:none"
       d="m 9.7482639,1049.7247 c 0.030083,0.027 0.060167,0.055 0.090248,0.082 0.00601,0 0.012668,0 0.01805,0 0.075119,0.042 -0.019295,0 0.01805,0.04 0.036192,0.041 -0.00332,-0.042 0.0361,-0.021 0.0076,0 0.00997,0.018 0.01805,0.021 0.017123,0.01 0.0361,0 0.054148,0 0.00599,0 0.01267,0 0.018047,0 0.0076,0 0.01044,-0.016 0.01805,-0.021 0.0054,0 0.0138,0.011 0.01805,0 0.0042,0 -0.0042,-0.015 0,-0.021 0.0042,0 0.01805,-0.01 0.01805,0 0,0.011 -0.01805,0.011 -0.01805,0 0,-0.01 0.01423,-0.012 0.01805,-0.021 0.0028,-0.011 0,-0.053 0,-0.061 0,-0.011 0.0038,-0.093 0,-0.1013 -0.03756,-0.084 0.0012,0.022 -0.03609,-0.021 -0.0042,0 0.0042,-0.015 0,-0.021 -8.09e-4,-8e-4 -0.081739,0 -0.09025,0 -0.00601,0 -0.013795,0 -0.01805,0 -0.00425,0 0.00425,0.016 0,0.021 -0.00852,0.01 -0.02759,-0.011 -0.0361,0 -0.00425,0 0,0.014 0,0.021 0,0.04 0,0.082 0,0.1221 0,0.021 0,0.04 0,0.061 0,0.011 -0.00425,0.015 0,0.021 0.00181,0 0.052344,0 0.054148,0 0.00425,0 -0.00425,-0.016 0,-0.021 0.00902,-0.01 0.045124,0.011 0.054147,0 0.00849,-0.01 -0.00378,-0.028 0,-0.04 0.00424,-0.015 0.00857,-0.032 0.018046,-0.04 0.0042,0 0.01267,0 0.01805,0 0.0399,-0.023 0.0056,-0.014 0.01805,-0.04 0.0037,-0.011 0.01424,-0.012 0.01805,-0.021 0.0027,-0.011 0,-0.014 0,-0.021 0,-0.01 0.0027,-0.014 0,-0.021 -0.0037,-0.01 -0.01536,-0.012 -0.01805,-0.021 -0.0037,-0.013 0.0085,-0.033 0,-0.04 -0.01994,-0.023 -0.047741,-0.021 -0.0722,-0.021 -0.00663,0 -0.071472,-9e-4 -0.072198,0 -0.00425,0 0.00425,0.015 0,0.021 -0.00425,0 -0.013795,0 -0.018051,0 -0.00425,0 0.00271,0.014 0,0.021 -0.00381,0.01 -0.015359,0.01 -0.01805,0.021 -0.00381,0.013 0,0.026 0,0.04 0,0.014 0,0.026 0,0.04 0,0.014 0,0.027 0,0.04 0,0.01 -0.00425,0.016 0,0.021 5.805e-4,7e-4 0.049771,0 0.054148,0 0.00816,0 0.1034891,0 0.1082981,0 0.0075,0 0.01599,-0.011 0.01805,-0.021 0.0043,-0.02 0,-0.04 0,-0.061 0,0 0.0021,-0.077 0,-0.082 -0.0037,-0.011 -0.01053,-0.015 -0.01805,-0.021 -0.0055,0 -0.01536,0.011 -0.01805,0 -0.00534,-0.011 0.0085,-0.033 0,-0.04 -0.00849,-0.01 -0.024069,0 -0.036099,0 -0.00601,0 -0.012035,0 -0.01805,0 -0.00601,0 -0.013795,0 -0.018051,0 -0.00425,0 0.00425,0.016 0,0.021 -0.00425,0 -0.013795,0 -0.01805,0 -0.00951,0.01 -0.010592,0.028 -0.01805,0.04 -0.00472,0.011 -0.014245,0.012 -0.018051,0.021 -0.00538,0.012 0.00539,0.027 0,0.04 -0.039435,0.089 -0.0361,0.031 -0.0361,0.082 0,0.014 -0.00381,0.028 0,0.04 0.00271,0.011 0.012035,0.014 0.01805,0.021 0.00601,0.011 0.010445,0.015 0.01805,0.021 0.00539,0 0.013795,0 0.018051,0 0.00425,0 -0.00425,0.015 0,0.021 0.00425,0 0.012035,0 0.01805,0 0.00437,0 0.053568,7e-4 0.054148,0 0.00425,0 0,-0.014 0,-0.021 0.00601,-0.014 0.00729,-0.033 0.01805,-0.04 0.015225,-0.013 0.038315,-0.01 0.054148,-0.021 0.0051,0 0,-0.014 0,-0.021 0,-0.011 0.0027,-0.015 0,-0.021 -0.0037,-0.011 -0.01424,-0.012 -0.01805,-0.021 -0.0027,-0.01 0,-0.014 0,-0.021 0,-0.014 0.0037,-0.027 0,-0.04 -0.01877,-0.064 -0.01203,0.011 -0.036101,-0.021 -0.00424,0 0.00424,-0.015 0,-0.021 -0.00903,-0.011 -0.045124,0.01 -0.054147,0 -0.00425,0 -0.00601,-0.021 0,-0.021 0.00601,0 0.00425,0.016 0,0.021 -0.00425,0 -0.013795,0 -0.01805,0 -0.00425,0 0.00425,0.016 0,0.021 -0.00951,0.01 -0.030082,0.01 -0.036099,0.021 -0.00807,0.018 0,0.04 0,0.061 0,0.014 0,0.026 0,0.04 0,0.01 -5.803e-4,0.06 0,0.061 0.00852,0.011 0.025336,-0.011 0.036099,0 0.075119,0.042 -0.019295,0 0.01805,0.04 0.00425,0 0.012033,0 0.018051,0 0.0043,0 0.068152,0 0.072197,0 0.0075,0 0.01424,-0.011 0.01805,-0.021 0.0027,-0.01 -0.002,-0.014 0,-0.021 0.0042,-0.015 0.01479,-0.025 0.01805,-0.04 0.0029,-0.014 0,-0.027 0,-0.04 0,-0.01 -0.0027,-0.014 0,-0.021 0.0037,-0.01 0.01424,-0.012 0.01805,-0.021 0.0027,-0.011 0,-0.014 0,-0.021 0,-0.011 0.0027,-0.014 0,-0.021 -0.0079,-0.018 -0.0416,-0.037 -0.05415,-0.04 -0.01167,0 -0.024068,0 -0.036103,0 -0.030082,0 -0.060166,0 -0.090248,0 -0.030083,0 -0.060166,0 -0.090248,0 -0.012035,0 -0.024684,0 -0.0361,0 -0.00807,0 -0.014245,0.012 -0.018051,0.021 -0.00271,0.01 0,0.014 0,0.021 0,0.034 0,0.067 0,0.1023 z"
       id="path3795"
       inkscape:connector-curvature="0" />
    <path
       style="fill:none;stroke:#444444;stroke-width:0.36893535;stroke-linecap:butt;stroke-linejoin:round;stroke-miterlimit:4;stroke-opacity:1;stroke-dasharray:none"
       d="m 9.9607939,1035.7954 c 0.0049,-0.044 0.00838,-0.087 0.013484,-0.132 -0.00393,-0 -0.00831,-0.01 -0.011835,-0.012 -0.012679,-0.086 0.012648,0.013 0.023333,-0.047 0.012142,-0.06 -0.034414,0.039 -0.041956,-0 -0.00498,-0.01 0.00962,-0.023 0.00645,-0.03 -0.00138,-0.021 -0.023669,-0.023 -0.035503,-0.035 -0.00393,-0 -0.00831,-0.01 -0.011835,-0.012 -0.00498,-0 -0.020912,0.01 -0.030122,0.01 -0.00354,-0 0.0015,-0.02 -0.011835,-0.012 -0.00276,-0 -0.010606,0.016 -0.018287,0.019 -0.00276,-0 -0.021682,-0 -0.011835,-0.012 0.01055,-0.011 0.022385,10e-4 0.011835,0.012 -0.00985,0.01 -0.020583,0 -0.030122,0.01 -0.012391,0.01 -0.046421,0.047 -0.053455,0.054 -0.01055,0.011 -0.084295,0.08 -0.089115,0.09 -0.049437,0.099 0.018202,-0.02 0.00538,0.042 0.00276,0 -0.016122,0.011 -0.018287,0.019 5.303e-4,6e-4 0.053593,0.053 0.059172,0.059 0.00393,0 0.00905,0.01 0.011835,0.012 0.00276,0 0.011252,-0.017 0.018287,-0.019 0.014717,-0 0.00754,0.029 0.023669,0.023 0.00282,0 0.01266,-0.013 0.018287,-0.018 0.035168,-0.036 0.071953,-0.073 0.1074725,-0.1086 0.018287,-0.019 0.035168,-0.036 0.053455,-0.054 0.01055,-0.011 0.016179,-0.011 0.018287,-0.018 -0.00118,-0 -0.034317,-0.034 -0.035503,-0.035 -0.00281,-0 -0.011252,0.017 -0.018287,0.018 -0.015043,0 -0.019033,-0.04 -0.035503,-0.035 -0.014717,0 -0.022122,0.027 -0.034464,0.035 -0.016122,0.011 -0.033771,0.023 -0.047003,0.024 -0.00276,-0 -0.00831,-0.01 -0.011835,-0.012 -0.045855,-0.01 -0.016328,0.01 -0.047002,0.024 -0.012974,0.01 -0.020591,0 -0.030122,0.01 -0.01232,0.01 -0.01266,0.013 -0.018287,0.018 -0.00985,0.01 -0.01443,0.011 -0.018287,0.019 -0.00672,0.012 -0.00118,0.021 -0.00645,0.03 -0.00953,0.014 -0.03441,0.024 -0.035168,0.035 -0.00662,0.033 0.013013,0.049 0.02905,0.065 0.00432,0 0.046861,0.046 0.047338,0.047 0.00276,0 0.010549,-0.016 0.018287,-0.018 0.00276,0 0.00905,0.01 0.011835,0.012 0.00276,0 0.01089,-0.015 0.018287,-0.019 0.012342,-0.01 0.019918,0 0.030122,-0.01 0.014452,-0.01 0.023914,-0.024 0.035168,-0.035 0.01266,-0.013 0.023211,-0.024 0.035168,-0.036 0.01266,-0.013 0.024617,-0.025 0.034464,-0.035 0.00985,-0.01 0.016882,-0.011 0.018287,-0.018 1.824e-4,-9e-4 -0.032633,-0.032 -0.035504,-0.035 -0.00538,-0.01 -0.067853,-0.067 -0.071006,-0.07 -0.00492,-0 -0.021035,3e-4 -0.030122,0.01 -0.020399,0.015 -0.034464,0.035 -0.053455,0.054 0,0 -0.068894,0.067 -0.071883,0.073 -0.00813,0.013 -0.00646,0.02 -0.00645,0.03 0.00361,0 0.020621,-7e-4 0.011835,0.012 -0.00707,0.014 -0.03441,0.024 -0.035168,0.035 -0.00427,0.015 0.015781,0.016 0.023669,0.024 0.00393,0 0.00789,0.01 0.011835,0.012 0.00393,0 0.00905,0.01 0.011835,0.012 0.00281,0 0.011309,-0.017 0.018287,-0.019 0.00281,0 0.00905,0.01 0.011835,0.012 0.016074,-0 0.031562,-0.018 0.047003,-0.024 0.013628,-0.01 0.02059,-0 0.030122,-0.01 0.014794,-0.01 0.021077,-0.028 0.034464,-0.035 0.1042062,-0.054 0.0511,-0 0.095552,-0.049 0.01266,-0.013 0.027816,-0.023 0.035168,-0.036 0.00878,-0.012 0.00477,-0.021 0.00645,-0.03 0.00662,-0.014 0.00652,-0.02 0.00645,-0.03 -0.00354,-0 -0.00905,-0.01 -0.011835,-0.012 -0.00281,-0 0.016122,-0.011 0.018287,-0.019 -0.00281,-0 -0.00789,-0.01 -0.011835,-0.012 -0.00289,-0 -0.035123,-0.035 -0.035503,-0.035 -0.00282,-0 -0.01266,0.013 -0.018287,0.018 -0.016591,0.01 -0.033629,0.024 -0.046299,0.023 -0.021937,0 -0.034972,-0.015 -0.053791,-0.017 -0.00334,-0 -0.01266,0.013 -0.018287,0.019 -0.01055,0.011 -0.015134,0.012 -0.018287,0.018 -0.00813,0.013 -0.00192,0.021 -0.00645,0.03 -0.00808,0.012 -0.01266,0.013 -0.018287,0.019 -0.01266,0.013 -0.026338,0.022 -0.035168,0.035 -0.043962,0.069 0.018438,-0 0.00538,0.042 0.00276,0 -0.016122,0.011 -0.018287,0.019 -0.00465,0.016 0.03943,0.019 0.035503,0.035 0.00281,0 -0.014356,0.022 -0.018287,0.019 -0.00393,-0 0.011309,-0.017 0.018287,-0.019 0.00281,0 0.00905,0.01 0.011835,0.012 0.00276,0 0.011252,-0.017 0.018287,-0.018 0.016074,-0 0.029569,0.01 0.041956,0 0.021487,-0.011 0.035168,-0.035 0.053455,-0.054 0.01266,-0.013 0.023914,-0.024 0.035168,-0.036 0.00914,-0.01 0.053132,-0.053 0.053455,-0.054 0.00498,-0.016 -0.027164,-0.01 -0.023669,-0.023 -0.012678,-0.086 0.012648,0.013 0.02263,-0.047 -0.00276,-0 -0.00789,-0.01 -0.011835,-0.012 -0.00281,-0 -0.044683,-0.044 -0.047338,-0.047 -0.00492,-0 -0.019886,0 -0.030122,0.01 -0.010914,0.01 -0.011352,0.014 -0.018287,0.018 -0.016122,0.011 -0.032204,0.013 -0.047002,0.024 -0.014558,0.011 -0.024617,0.025 -0.034464,0.035 -0.00985,0.01 -0.01089,0.015 -0.018287,0.018 -0.012271,0.01 -0.02059,0 -0.030122,0.01 -0.01232,0.01 -0.01266,0.013 -0.018287,0.018 -0.01055,0.011 -0.01443,0.011 -0.018287,0.018 -0.010995,0.022 -0.00508,0.06 0.00104,0.07 0.00765,0.01 0.015781,0.016 0.023669,0.023 0.019722,0.019 0.039451,0.039 0.059172,0.059 0.019722,0.02 0.039451,0.039 0.059172,0.059 0.00789,0.01 0.016182,0.016 0.023669,0.023 0.00531,0.01 0.020591,-0 0.030122,-0.01 0.010914,-0.01 0.01266,-0.013 0.018287,-0.018 0.029541,-0.03 0.059082,-0.06 0.089959,-0.091 z"
       id="path3795-7"
       inkscape:connector-curvature="0" />
    <path
       sodipodi:type="arc"
       style="fill:none;stroke:#444444;stroke-width:1;stroke-linejoin:round;stroke-miterlimit:4;stroke-opacity:1;stroke-dasharray:none"
       id="path3819"
       sodipodi:cx="15.558036"
       sodipodi:cy="9.2857141"
       sodipodi:rx="3.5267856"
       sodipodi:ry="3.7723215"
       d="m 19.084821,9.2857141 a 3.5267856,3.7723215 0 1 1 -7.053571,0 3.5267856,3.7723215 0 1 1 7.053571,0 z"
       transform="matrix(1.0296882,0,0,0.99817001,-0.30563971,1033.2721)" />
    <path
       style="fill:none;stroke:#444444;stroke-width:1px;stroke-linecap:butt;stroke-linejoin:miter;stroke-opacity:1"
       d="m 13.28125,7.4776785 4.709821,5.2008925"
       id="path3821"
       inkscape:connector-curvature="0"
       transform="translate(0,1032.3622)" />
  </g>
</svg>
